<?xml version="1.0" standalone="no"?> <!DOCTYPE svg PUBLIC "-//W3C//DTD SVG 1.0//EN" "http://www.w3.org/TR/2001/REC-SVG-20010904/DTD/svg10.dtd" > <svg xmlns="http://www.w3.org/2000/svg" width="100%" height="100%">
<defs >
<font id="latomedium" horiz-adv-x="1112" ><font-face
    font-family="Lato"
    units-per-em="2000"
    panose-1="2 15 5 2 2 2 4 3 2 3"
    ascent="1974"
    descent="-426"
    alphabetic="0" />
<missing-glyph horiz-adv-x="1071" d="M247 1143Q273 1165 302 1184T367 1217T442 1240T529 1249Q593 1249 646 1231T736 1181T793 1102T814 998Q814 943 800 904T763 835T714 784T663 743T622 706T600 665L582 562H449L435 679Q430 714 443 739T478 786T527 827T577
869T617 920T633 987Q633 1034 600 1061T512 1089Q473 1089 446 1081T399 1062T365 1044T339 1035Q312 1035 299 1059L247 1143ZM393 298Q393 322 402 343T426 381T463 406T509 415Q533 415 554 406T590 381T615 344T624 298Q624 273 615 252T591 215T554 190T509
181Q484 181 463 190T427 214T402 251T393 298ZM44 1436H1027V0H44V1436ZM98 58H967V1378H98V58Z" />
<glyph unicode=" " glyph-name="null" horiz-adv-x="505" />
<glyph unicode="!" glyph-name="null" horiz-adv-x="544" d="M366 1436V864Q366 819 364 776T359 690T350 600T339 503H207Q201 554 196 600T188 689T182 776T180 864V1436H366ZM138 117Q138 144 148 168T176 210T218 238T270 249Q297 249 321 239T363 210T391
168T402 117Q402 89 392 65T363 23T321 -5T270 -15Q242 -15 218 -5T176 23T148 65T138 117Z" />
<glyph unicode="&quot;" glyph-name="null" horiz-adv-x="754" d="M291 1436V1147L273 991Q268 956 254 937T205 918Q176 918 161 937T139 991L121 1147V1436H291ZM633 1436V1147L615 991Q610 956 596 937T547 918Q518 918 503 937T481 991L463 1147V1436H633Z" />
<glyph unicode="#" glyph-name="null" horiz-adv-x="1160" d="M723 875H486L425 563H661L723 875ZM1114 1019L1099 936Q1094 905 1074 890T1012 875H884L822 563H992Q1023 563 1036 545T1043 482L1034 419H801L719 0H631Q617 0 605 6T584 24T573 51T573 84L640
419H404L337 74Q329 34 304 17T247 0H161L243 419H105Q75 419 61 437T54 500L63 563H264L325 875H98L112 957Q117 989 137 1004T199 1019H346L415 1367Q421 1399 445 1417T501 1436H589L507 1019H744L825 1436H912Q944 1436 962 1416T974 1364L905 1019H1114Z"
/>
<glyph unicode="$" glyph-name="null" horiz-adv-x="1160" d="M617 152Q742 165 808 233T874 409Q874 456 857 490T809 549T739 593T652 626L617 152ZM577 1281Q514 1275 469 1256T394 1209T350 1145T336 1070Q336 1025 352 991T396 932T463 887T546 852L577 1281ZM665
813Q737 791 807 765T934 697T1024 595T1059 440Q1059 350 1029 270T940 129T798 30T605 -15L593 -182Q592 -202 577 -218T539 -234H467L483 -12Q364 1 263 49T90 172L149 262Q158 274 171 282T200 290Q220 290 244 272T303 231T383 185T495 153L532 662Q462 683
394 709T272 779T185 888T152 1051Q152 1125 181 1195T265 1320T402 1410T589 1449L599 1589Q600 1609 615 1625T653 1641H725L711 1444Q816 1430 892 1389T1027 1289L980 1217Q959 1184 931 1184Q917 1184 897 1196T848 1223T782 1255T699 1279L665 813Z" />
<glyph unicode="%" glyph-name="null" horiz-adv-x="1612" d="M728 1089Q728 1005 702 939T631 828T529 758T406 733Q337 733 279 757T177 827T110 939T85 1089Q85 1175 109 1242T177 1355T278 1426T406 1451Q475 1451 533 1427T635 1356T703 1242T728 1089ZM576
1089Q576 1153 563 1197T526 1269T472 1309T406 1322Q371 1322 340 1310T287 1270T251 1198T238 1089Q238 1027 251 984T286 913T340 874T406 862Q441 862 472 874T526 913T562 983T576 1089ZM1228 1404Q1239 1417 1253 1426T1294 1436H1435L381 31Q370 17 355
9T319 0H174L1228 1404ZM1527 339Q1527 255 1501 189T1430 78T1328 8T1205 -17Q1136 -17 1078 7T976 77T909 189T884 339Q884 425 908 492T976 605T1077 676T1205 700Q1274 700 1332 676T1434 606T1502 492T1527 339ZM1375 339Q1375 403 1362 447T1325 518T1271
558T1205 571Q1169 571 1139 559T1086 519T1050 447T1037 339Q1037 276 1050 233T1085 163T1138 124T1205 112Q1240 112 1271 124T1325 163T1361 233T1375 339Z" />
<glyph unicode="&amp;" glyph-name="null" horiz-adv-x="1430" d="M480 698Q381 643 333 567T284 402Q284 340 306 292T366 210T452 160T552 143Q658 143 743 180T894 281L480 698ZM1415 0H1225Q1193 0 1175 7T1133 39L1000 173Q906 85 785 35T518 -16Q437 -16
360 11T221 91T123 217T85 386Q85 455 108 517T172 632T269 727T392 799Q333 876 306 948T278 1097Q278 1170 305 1235T382 1348T504 1424T668 1452Q749 1452 815 1427T930 1358T1005 1259T1037 1142L915 1117Q878 1109 861 1150Q853 1176 839 1203T801 1251T744
1287T668 1301Q620 1301 582 1285T516 1242T475 1177T460 1098Q460 1065 468 1034T492 971T535 907T597 837L1002 422Q1039 488 1061 561T1090 707Q1092 727 1102 739T1133 751H1254Q1253 631 1217 518T1115 307L1415 0Z" />
<glyph unicode="&apos;" glyph-name="null" horiz-adv-x="412" d="M291 1436V1147L273 991Q268 956 254 937T205 918Q176 918 161 937T139 991L121 1147V1436H291Z" />
<glyph unicode="(" glyph-name="null" horiz-adv-x="538" d="M256 628Q256 416 309 215T464 -166Q481 -199 473 -217T448 -246L361 -299Q286 -184 234 -71T149 157T101 389T86 628Q86 751 101 868T148 1099T233 1327T361 1556L448 1503Q465 1492 473 1474T464
1423Q362 1243 309 1042T256 628Z" />
<glyph unicode=")" glyph-name="null" horiz-adv-x="538" d="M282 628Q282 840 229 1041T73 1423Q56 1456 64 1474T90 1503L177 1556Q252 1441 304 1328T389 1100T437 868T452 628Q452 506 437 389T389 158T304 -70T177 -299L90 -246Q73 -235 65 -217T73 -166Q175
14 228 215T282 628Z" />
<glyph unicode="*" glyph-name="null" horiz-adv-x="850" d="M732 1058L685 976L516 1075Q498 1086 483 1097T457 1125Q472 1090 472 1050V856H377V1049Q377 1069 379 1086T390 1121Q379 1107 365 1096T334 1075L166 977L119 1059L287 1157Q305 1167 322 1173T358
1182Q320 1187 287 1208L118 1307L165 1389L334 1290Q352 1279 366 1267T392 1239Q384 1256 381 1275T377 1314V1509H472V1316Q472 1296 470 1278T460 1242Q471 1257 485 1268T516 1290L684 1387L731 1305L563 1208Q546 1198 530 1191T495 1182Q529 1178 563 1157L732
1058Z" />
<glyph unicode="+" glyph-name="null" horiz-adv-x="1160" d="M1062 597H659V172H500V597H99V745H500V1168H659V745H1062V597Z" />
<glyph unicode="," glyph-name="null" horiz-adv-x="458" d="M225 0Q198 0 176 10T137 37T111 79T102 131Q102 155 111 176T136 214T176 239T227 249Q259 249 283 238T324 206T349 158T357 100Q357 55 344 5T306 -94T244 -189T160 -274L127 -243Q112 -229 112
-212Q112 -205 116 -198T128 -183Q138 -172 154 -154T185 -113T214 -61T234 0H225Z" />
<glyph unicode="-" glyph-name="null" horiz-adv-x="744" d="M122 684H622V518H122V684Z" />
<glyph unicode="." glyph-name="null" horiz-adv-x="472" d="M105 117Q105 144 115 168T142 210T184 238T236 249Q263 249 287 239T329 210T357 168T368 117Q368 89 358 65T329 23T287 -5T236 -15Q208 -15 184 -5T143 23T115 65T105 117Z" />
<glyph unicode="/" glyph-name="null" horiz-adv-x="911" d="M253 -16Q239 -54 209 -72T147 -91H65L661 1405Q675 1439 701 1457T763 1476H846L253 -16Z" />
<glyph unicode="0" glyph-name="null" horiz-adv-x="1160" d="M1102 718Q1102 530 1062 392T951 164T785 29T579 -15Q469 -15 374 29T208 163T98 392T58 718Q58 906 98 1044T208 1273T373 1408T579 1452Q689 1452 784 1408T950 1274T1061 1045T1102 718ZM900 718Q900
880 874 989T803 1164T700 1259T579 1287Q516 1287 458 1259T356 1165T285 989T259 718Q259 556 285 447T355 272T458 178T579 150Q642 150 700 178T802 272T873 447T900 718Z" />
<glyph unicode="1" glyph-name="null" horiz-adv-x="1160" d="M1022 149V0H246V149H550V1090Q550 1135 553 1183L309 976Q295 965 281 962T255 961T233 969T217 983L156 1068L586 1439H745V149H1022Z" />
<glyph unicode="2" glyph-name="null" horiz-adv-x="1160" d="M986 185Q1018 185 1036 167T1054 118V0H90V67Q90 87 98 109T125 150L579 605Q636 662 682 715T760 820T809 928T827 1044Q827 1104 808 1149T756 1225T678 1270T581 1285Q529 1285 486 1270T408 1228T351
1164T318 1084Q304 1046 283 1033T220 1027L118 1045Q132 1145 173 1221T276 1348T418 1426T592 1452Q686 1452 765 1425T903 1345T994 1219T1027 1050Q1027 970 1004 902T940 771T846 651T732 532L368 160Q410 171 452 178T533 185H986Z" />
<glyph unicode="3" glyph-name="null" horiz-adv-x="1160" d="M124 1045Q139 1145 180 1221T283 1348T425 1426T599 1452Q692 1452 770 1426T903 1351T990 1234T1021 1084Q1021 1015 1004 962T956 869T879 802T778 756Q915 718 984 633T1053 416Q1053 315 1015
235T911 99T758 14T571 -16Q458 -16 377 11T239 88T145 207T81 360L166 396Q199 410 230 404T275 369Q290 339 309 302T362 231T444 174T569 151Q641 151 695 174T785 235T839 319T857 410Q857 466 843 513T790 593T680 646T498 665V807Q590 808 653 826T756 876T812
952T830 1050Q830 1109 812 1153T762 1226T685 1270T588 1285Q536 1285 492 1270T414 1228T357 1164T324 1084Q310 1046 289 1033T227 1027L124 1045Z" />
<glyph unicode="4" glyph-name="null" horiz-adv-x="1160" d="M726 524V1084Q726 1113 727 1145T734 1213L231 524H726ZM1105 524V411Q1105 394 1094 382T1063 370H897V0H726V370H96Q74 370 59 382T39 414L19 514L713 1437H897V524H1105Z" />
<glyph unicode="5" glyph-name="null" horiz-adv-x="1160" d="M373 900Q483 923 572 923Q684 923 770 890T914 798T1002 660T1032 487Q1032 373 992 280T882 121T717 20T511 -16Q446 -16 388 -3T278 31T184 81T106 140L166 224Q185 252 217 252Q238 252 263 237T324
202T407 168T521 152Q594 152 652 175T751 242T813 345T835 478Q835 543 816 595T759 684T664 740T531 760Q425 760 305 722L182 758L299 1436H987V1351Q987 1309 961 1283T872 1256H435L373 900Z" />
<glyph unicode="6" glyph-name="null" horiz-adv-x="1160" d="M578 147Q647 147 703 169T799 231T861 324T883 441Q883 510 862 564T802 657T709 715T589 735Q520 735 465 712T371 649T311 556T290 445Q290 379 309 324T365 230T455 169T578 147ZM486 902Q469
880 453 860T421 819Q469 850 527 867T654 884Q739 884 816 856T951 774T1044 640T1078 456Q1078 357 1042 271T941 121T784 21T582 -16Q472 -16 384 19T233 118T136 274T102 478Q102 574 143 680T275 908L634 1389Q649 1409 676 1422T738 1436H912L486 902Z" />
<glyph unicode="7" glyph-name="null" horiz-adv-x="1160" d="M1084 1436V1349Q1084 1311 1076 1288T1059 1247L477 69Q463 40 438 20T371 0H231L822 1161Q837 1189 852 1212T885 1256H151Q132 1256 118 1270T104 1303V1436H1084Z" />
<glyph unicode="8" glyph-name="null" horiz-adv-x="1160" d="M580 139Q648 139 701 158T791 211T847 294T866 399Q866 469 843 519T781 602T690 650T580 666Q521 666 469 651T378 603T317 520T294 399Q294 342 313 294T369 212T459 158T580 139ZM580 1302Q518
1302 472 1284T394 1233T348 1159T332 1069Q332 1022 345 978T388 899T465 843T580 822Q647 822 694 843T771 898T814 977T828 1069Q828 1117 813 1159T766 1233T689 1283T580 1302ZM795 749Q929 709 998 620T1068 395Q1068 301 1033 225T933 96T778 13T580 -16Q472
-16 382 13T228 95T128 225T92 395Q92 531 161 620T365 749Q254 791 198 874T142 1073Q142 1153 173 1222T262 1343T401 1423T580 1452Q678 1452 759 1423T897 1343T986 1223T1018 1073Q1018 958 962 875T795 749Z" />
<glyph unicode="9" glyph-name="null" horiz-adv-x="1160" d="M295 1012Q295 879 367 807T567 735Q636 735 689 757T778 817T834 904T853 1008Q853 1073 833 1125T775 1214T688 1270T576 1290Q513 1290 461 1270T372 1212T315 1124T295 1012ZM689 568Q728 619
762 668Q708 627 642 606T500 585Q421 585 349 612T221 691T132 821T99 998Q99 1092 134 1175T232 1319T384 1416T579 1452Q684 1452 769 1418T915 1323T1008 1175T1041 986Q1041 923 1030 866T997 755T945 649T875 541L530 46Q516 26 490 13T429 0H250L689 568Z"
/>
<glyph unicode=":" glyph-name="null" horiz-adv-x="504" d="M121 117Q121 144 131 168T158 210T200 238T252 249Q279 249 303 239T345 210T373 168T384 117Q384 89 374 65T345 23T303 -5T252 -15Q224 -15 200 -5T159 23T131 65T121 117ZM121 857Q121 884 131
908T158 950T200 978T252 989Q279 989 303 979T345 950T373 908T384 857Q384 829 374 805T345 763T303 735T252 725Q224 725 200 735T159 763T131 805T121 857Z" />
<glyph unicode=";" glyph-name="null" horiz-adv-x="528" d="M260 0Q233 0 211 10T172 37T146 79T137 131Q137 155 146 176T171 214T211 239T262 249Q294 249 318 238T359 206T384 158T392 100Q392 55 379 5T341 -94T279 -189T195 -274L162 -243Q147 -229 147
-212Q147 -205 151 -198T163 -183Q173 -172 189 -154T220 -113T249 -61T269 0H260ZM131 857Q131 884 141 908T168 950T210 978T262 989Q289 989 313 979T355 950T383 908T394 857Q394 829 384 805T355 763T313 735T262 725Q234 725 210 735T169 763T141 805T131
857Z" />
<glyph unicode="&lt;" glyph-name="null" horiz-adv-x="1160" d="M472 706Q431 685 379 673Q431 661 472 640L900 424Q920 413 928 399T937 368V228L159 633V713L937 1118V978Q937 961 929 947T900 922L472 706Z" />
<glyph unicode="=" glyph-name="null" horiz-adv-x="1160" d="M147 577H1013V429H147V577ZM147 917H1013V769H147V917Z" />
<glyph unicode="&gt;" glyph-name="null" horiz-adv-x="1160" d="M1001 713V633L223 228V368Q223 385 231 399T260 424L688 640Q728 661 781 673Q728 685 688 706L260 922Q240 933 232 947T223 978V1118L1001 713Z" />
<glyph unicode="?" glyph-name="null" horiz-adv-x="901" d="M79 1308Q111 1337 149 1363T232 1409T329 1440T443 1452Q524 1452 592 1429T710 1363T788 1260T816 1124Q816 1048 794 993T737 896T663 825T587 767T526 714T495 654L476 503H343L329 668Q324 714
345 748T399 811T474 869T550 931T609 1009T633 1113Q633 1154 617 1187T573 1243T507 1279T426 1292Q366 1292 324 1278T253 1246T204 1215T172 1200Q143 1200 130 1225L79 1308ZM273 117Q273 144 283 168T310 210T352 238T404 249Q431 249 455 239T497 210T525
168T536 117Q536 89 526 65T497 23T455 -5T404 -15Q376 -15 352 -5T311 23T283 65T273 117Z" />
<glyph unicode="@" glyph-name="null" horiz-adv-x="1677" d="M1048 817Q1010 825 968 825Q896 825 836 795T731 715T663 601T638 469Q638 399 669 358T763 316Q793 316 823 325T881 359T933 423T973 525L1048 817ZM1125 544Q1106 471 1106 426T1121 354T1160
319T1215 309Q1262 309 1304 336T1379 414T1430 535T1449 689Q1449 825 1406 928T1286 1099T1105 1201T879 1236Q746 1236 630 1186T429 1046T294 836T244 572Q244 404 297 276T441 63T657 -66T923 -110Q1075 -110 1191 -78T1388 3Q1410 16 1426 11T1450 -14L1477
-86Q1371 -156 1233 -198T923 -240Q747 -240 597 -185T337 -25T164 230T101 572Q101 680 128 781T206 970T327 1131T484 1256T670 1336T879 1365Q972 1365 1061 1345T1228 1285T1373 1188T1487 1055T1562 888T1589 689Q1589 581 1558 489T1473 330T1346 224T1187
185Q1112 185 1062 221T996 333Q938 255 871 222T725 188Q665 188 620 209T545 267T501 354T486 464Q486 549 518 635T615 792T776 906T999 950Q1068 950 1120 939T1219 908L1125 544Z" />
<glyph unicode="A" glyph-name="null" horiz-adv-x="1363" d="M940 535L727 1092Q704 1149 681 1236Q670 1193 659 1156T636 1090L424 535H940ZM1361 0H1197Q1169 0 1151 14T1125 50L998 383H365L238 50Q231 31 212 16T166 0H2L574 1436H789L1361 0Z" />
<glyph unicode="B" glyph-name="null" horiz-adv-x="1299" d="M690 169Q771 169 828 188T922 240T976 318T993 418Q993 525 919 586T690 648H390V169H690ZM390 1269V799H635Q792 799 868 862T945 1034Q945 1157 872 1213T645 1269H390ZM645 1436Q780 1436 876
1410T1035 1335T1126 1217T1156 1059Q1156 1007 1140 959T1091 870T1008 795T890 740Q1203 678 1203 413Q1203 321 1169 246T1070 115T910 30T694 0H177V1436H645Z" />
<glyph unicode="C" glyph-name="null" horiz-adv-x="1333" d="M1180 308Q1198 308 1211 294L1295 202Q1207 98 1081 41T776 -16Q620 -16 494 38T278 189T139 421T90 718Q90 880 141 1015T286 1247T508 1398T795 1452Q948 1452 1067 1402T1274 1269L1204 1170Q1197
1159 1187 1152T1159 1145Q1140 1145 1115 1164T1048 1206T945 1249T793 1268Q686 1268 597 1231T444 1123T344 950T308 718Q308 587 345 485T447 312T600 204T790 167Q852 167 901 174T992 197T1071 235T1144 292Q1152 299 1161 303T1180 308Z" />
<glyph unicode="D" glyph-name="null" horiz-adv-x="1521" d="M1430 718Q1430 557 1379 425T1233 199T1008 52T717 0H177V1436H717Q877 1436 1008 1384T1233 1238T1378 1011T1430 718ZM1212 718Q1212 846 1177 947T1078 1119T922 1227T717 1264H391V172H717Q830
172 921 209T1077 316T1177 488T1212 718Z" />
<glyph unicode="E" glyph-name="null" horiz-adv-x="1154" d="M1068 173L1067 0H177V1436H1067V1263H391V808H935V641H391V173H1068Z" />
<glyph unicode="F" glyph-name="null" horiz-adv-x="1131" d="M391 1263V782H967V609H391V0H177V1436H1067V1263H391Z" />
<glyph unicode="G" glyph-name="null" horiz-adv-x="1459" d="M1349 699V139Q1240 61 1117 23T849 -16Q675 -16 535 38T295 189T143 421T89 718Q89 881 140 1016T288 1248T520 1398T827 1452Q913 1452 986 1439T1123 1402T1239 1345T1339 1269L1278 1173Q1264
1150 1241 1144T1191 1155Q1165 1170 1134 1190T1059 1227T957 1256T820 1268Q702 1268 607 1230T445 1119T342 946T306 718Q306 586 344 482T451 305T620 194T843 156Q891 156 932 161T1012 177T1085 202T1156 235V536H944Q924 536 912 548T899 578V699H1349Z"
/>
<glyph unicode="H" glyph-name="null" horiz-adv-x="1531" d="M1353 1436V0H1140V647H391V0H177V1436H391V802H1140V1436H1353Z" />
<glyph unicode="I" glyph-name="null" horiz-adv-x="568" d="M391 0H177V1436H391V0Z" />
<glyph unicode="J" glyph-name="null" horiz-adv-x="849" d="M686 500Q686 380 656 284T569 122T426 20T229 -16Q129 -16 23 12L35 138Q37 156 48 167T83 179Q100 179 129 171T207 162Q271 162 320 181T404 240T455 344T473 495V1436H686V500Z" />
<glyph unicode="K" glyph-name="null" horiz-adv-x="1337" d="M390 815H460Q498 815 521 824T564 857L1021 1388Q1043 1415 1066 1425T1123 1436H1305L773 824Q753 798 734 782T693 755Q748 736 789 678L1342 0H1157Q1137 0 1123 3T1098 11T1079 25T1063 44L590
604Q580 617 570 626T547 640T517 648T477 651H390V0H177V1436H390V815Z" />
<glyph unicode="L" glyph-name="null" horiz-adv-x="1030" d="M999 179V0H177V1436H390V179H999Z" />
<glyph unicode="M" glyph-name="null" horiz-adv-x="1865" d="M1687 1436V0H1501V1022Q1501 1045 1502 1071T1506 1124L1028 247Q1003 198 951 198H921Q869 198 845 247L358 1127Q364 1071 364 1022V0H177V1436H335Q363 1436 378 1431T408 1400L888 540Q902 514
914 485T937 427Q958 486 986 541L1457 1400Q1470 1425 1485 1430T1529 1436H1687Z" />
<glyph unicode="N" glyph-name="null" horiz-adv-x="1531" d="M1353 1436V0H1245Q1220 0 1204 9T1170 38L359 1087Q361 1060 362 1034T364 985V0H177V1436H287Q315 1436 329 1430T360 1400L1173 350Q1170 379 1169 406T1167 458V1436H1353Z" />
<glyph unicode="O" glyph-name="null" horiz-adv-x="1605" d="M1515 718Q1515 557 1464 423T1318 191T1093 39T802 -15Q643 -15 512 39T287 190T141 422T89 718Q89 878 141 1013T286 1245T511 1397T802 1452Q962 1452 1093 1398T1318 1246T1463 1013T1515 718ZM1297
718Q1297 846 1262 948T1163 1121T1007 1230T802 1268Q689 1268 598 1230T441 1121T341 948T306 718Q306 589 341 488T441 315T597 207T802 169Q915 169 1006 206T1162 315T1262 487T1297 718Z" />
<glyph unicode="P" glyph-name="null" horiz-adv-x="1210" d="M612 697Q693 697 754 718T857 777T920 869T941 988Q941 1119 860 1194T612 1269H390V697H612ZM612 1436Q750 1436 852 1404T1021 1314T1120 1172T1153 988Q1153 887 1118 803T1015 657T846 563T612
529H390V0H177V1436H612Z" />
<glyph unicode="Q" glyph-name="null" horiz-adv-x="1605" d="M307 718Q307 589 342 488T442 315T598 207T803 169Q916 169 1007 206T1163 315T1263 487T1298 718Q1298 846 1263 948T1164 1121T1008 1230T803 1268Q690 1268 599 1230T442 1121T342 948T307 718ZM1585
-292H1409Q1370 -292 1340 -282T1284 -243L1042 21Q932 -15 803 -15Q644 -15 513 39T288 190T142 422T90 718Q90 878 142 1013T287 1245T512 1397T803 1452Q963 1452 1094 1398T1319 1246T1464 1013T1516 718Q1516 618 1496 528T1437 359T1344 217T1218 105L1585
-292Z" />
<glyph unicode="R" glyph-name="null" horiz-adv-x="1261" d="M584 744Q666 744 728 764T833 820T896 907T917 1019Q917 1143 836 1206T591 1269H390V744H584ZM1254 0H1064Q1007 0 981 45L626 543Q609 568 589 578T529 589H390V0H177V1436H591Q730 1436 830 1408T996
1327T1093 1200T1125 1034Q1125 959 1102 893T1035 775T926 684T781 626Q821 602 850 559L1254 0Z" />
<glyph unicode="S" glyph-name="null" horiz-adv-x="1088" d="M920 1202Q910 1185 899 1177T871 1169Q853 1169 830 1185T773 1222T690 1259T575 1276Q512 1276 465 1260T385 1215T337 1148T320 1064Q320 1006 349 968T427 903T536 856T661 815T786 765T895 695T972
591T1002 440Q1002 345 970 262T875 117T723 20T517 -16Q448 -16 383 -3T260 35T152 94T61 172L122 274Q131 286 143 294T172 302Q193 302 220 280T288 232T385 183T523 161Q589 161 641 178T728 228T783 307T802 409Q802 472 773 512T696 579T587 625T462 664T337
712T228 782T151 891T122 1053Q122 1130 152 1202T239 1329T381 1418T573 1452Q694 1452 795 1414T972 1303L920 1202Z" />
<glyph unicode="T" glyph-name="null" horiz-adv-x="1186" d="M1156 1258H700V0H488V1258H30V1436H1156V1258Z" />
<glyph unicode="U" glyph-name="null" horiz-adv-x="1475" d="M737 171Q823 171 891 200T1006 281T1078 406T1103 567V1436H1315V567Q1315 441 1275 334T1160 149T978 27T737 -17Q603 -17 496 27T314 149T199 334T159 567V1436H372V568Q372 480 396 407T468 282T583
200T737 171Z" />
<glyph unicode="V" glyph-name="null" horiz-adv-x="1363" d="M1361 1436L777 0H586L2 1436H172Q200 1436 217 1422T244 1386L632 410Q646 374 659 331T684 241Q694 288 706 331T732 410L1119 1386Q1126 1406 1144 1421T1190 1436H1361Z" />
<glyph unicode="W" glyph-name="null" horiz-adv-x="2079" d="M2052 1436L1604 0H1412L1062 1065Q1050 1097 1041 1142Q1030 1096 1020 1065L666 0H475L27 1436H205Q233 1436 252 1423T277 1386L560 425Q568 397 574 364T588 295Q595 331 602 364T620 425L944
1386Q950 1406 969 1421T1016 1436H1077Q1105 1436 1123 1422T1149 1386L1472 425Q1490 370 1504 300Q1516 369 1530 425L1814 1386Q1819 1406 1839 1421T1886 1436H2052Z" />
<glyph unicode="X" glyph-name="null" horiz-adv-x="1308" d="M1291 0H1080Q1057 0 1043 12T1021 39L650 630Q642 605 631 587L270 39Q260 25 247 13T214 0H15L506 739L36 1436H247Q270 1436 281 1429T300 1408L663 845Q671 871 685 893L1025 1404Q1034 1420 1045
1428T1073 1436H1276L803 748L1291 0Z" />
<glyph unicode="Y" glyph-name="null" horiz-adv-x="1260" d="M736 568V0H524V568L-2 1436H185Q213 1436 230 1423T258 1387L570 850Q589 813 604 780T632 715Q643 747 657 780T691 850L1002 1387Q1012 1405 1029 1420T1074 1436H1262L736 568Z" />
<glyph unicode="Z" glyph-name="null" horiz-adv-x="1206" d="M1144 1357Q1144 1321 1122 1288L329 173H1130V0H50V84Q50 101 55 116T70 145L865 1263H90V1436H1144V1357Z" />
<glyph unicode="[" glyph-name="null" horiz-adv-x="616" d="M342 1408V-165H503Q526 -165 541 -180T556 -217V-294H178V1537H556V1460Q556 1438 541 1423T503 1408H342Z" />
<glyph unicode="\" glyph-name="null" horiz-adv-x="911" d="M65 1476H148Q183 1476 209 1458T249 1405L846 -91H764Q732 -91 702 -73T658 -16L65 1476Z" />
<glyph unicode="]" glyph-name="null" horiz-adv-x="616" d="M438 -294H59V-217Q59 -195 74 -180T113 -165H274V1408H113Q89 1408 74 1423T59 1460V1537H438V-294Z" />
<glyph unicode="^" glyph-name="null" horiz-adv-x="1160" d="M1036 692H894Q875 692 862 702T841 728L621 1156Q607 1184 597 1209T579 1259Q571 1234 562 1209T540 1156L328 728Q322 713 309 703T274 692H124L514 1436H640L1036 692Z" />
<glyph unicode="_" glyph-name="null" horiz-adv-x="922" d="M855 -157V-287H67V-157H855Z" />
<glyph unicode="`" glyph-name="null" horiz-adv-x="800" d="M303 1452Q338 1452 355 1441T386 1406L533 1164H422Q399 1164 385 1170T355 1194L118 1452H303Z" />
<glyph unicode="a" glyph-name="null" horiz-adv-x="999" d="M683 451Q564 447 481 433T346 394T271 338T248 265Q248 227 260 200T294 155T345 129T408 121Q453 121 490 130T561 155T624 196T683 251V451ZM111 874Q196 955 295 995T514 1035Q601 1035 668 1007T781
927T850 805T874 648V0H787Q758 0 743 9T719 45L698 134Q659 98 621 71T542 24T453 -6T349 -16Q289 -16 237 0T145 51T84 136T61 255Q61 315 93 370T199 470T391 542T683 574V648Q683 763 634 820T490 877Q426 877 383 861T308 826T253 790T204 774Q184 774 170
785T146 811L111 874Z" />
<glyph unicode="b" glyph-name="null" horiz-adv-x="1124" d="M332 250Q380 187 436 162T558 137Q694 137 767 234T841 527Q841 708 776 792T592 877Q508 877 447 839T332 731V250ZM332 876Q395 946 475 989T657 1032Q746 1032 817 998T939 899T1016 742T1043
534Q1043 411 1013 310T926 137T788 26T606 -14Q557 -14 516 -5T441 23T377 67T322 126L313 41Q305 0 263 0H137V1476H332V876Z" />
<glyph unicode="c" glyph-name="null" horiz-adv-x="957" d="M849 826Q840 815 832 809T807 802Q791 802 774 814T730 841T666 868T573 881Q501 881 446 855T355 781T299 664T280 509Q280 420 300 351T357 234T447 162T565 137Q628 137 669 152T737 186T782 219T819
235Q843 235 856 217L912 145Q877 102 834 72T741 23T639 -5T530 -14Q435 -14 353 21T210 123T114 287T79 509Q79 622 110 718T203 883T355 992T561 1032Q670 1032 753 997T901 898L849 826Z" />
<glyph unicode="d" glyph-name="null" horiz-adv-x="1124" d="M792 770Q744 833 689 858T564 883Q430 883 357 787T283 505Q283 408 299 340T347 228T425 164T529 143Q614 143 676 181T792 288V770ZM988 1476V0H870Q829 0 819 39L802 156Q737 79 655 33T464 -14Q377
-14 307 20T186 119T109 282T82 505Q82 618 112 715T199 883T337 994T520 1035Q612 1035 676 1005T792 920V1476H988Z" />
<glyph unicode="e" glyph-name="null" horiz-adv-x="1059" d="M810 621Q810 679 794 728T745 813T667 869T561 889Q438 889 368 818T278 621H810ZM971 145Q935 103 888 73T788 23T679 -5T567 -14Q462 -14 373 21T218 125T116 295T79 529Q79 635 112 726T206 886T357
993T557 1032Q650 1032 728 1002T864 913T953 770T986 576Q986 531 976 516T939 500H273Q276 409 299 342T362 229T459 162T584 140Q649 140 696 155T778 187T836 220T878 235Q902 235 915 217L971 145Z" />
<glyph unicode="f" glyph-name="null" horiz-adv-x="705" d="M204 0V856L98 869Q75 874 61 885T46 919V1000H204V1092Q204 1179 229 1247T300 1362T412 1434T560 1459Q629 1459 687 1439L683 1341Q682 1328 675 1322T657 1312T629 1309T593 1308Q548 1308 511
1297T448 1260T408 1192T394 1086V1000H679V858H400V0H204Z" />
<glyph unicode="g" glyph-name="null" horiz-adv-x="1044" d="M494 507Q546 507 585 521T651 560T691 622T705 701Q705 789 652 841T494 894Q391 894 338 842T284 701Q284 658 297 623T337 562T403 522T494 507ZM805 -53Q805 -17 785 4T731 38T650 56T554 65T450
70T348 80Q296 54 263 17T229 -70Q229 -102 245 -130T296 -178T383 -210T509 -222Q581 -222 636 -210T728 -175T785 -121T805 -53ZM1003 978V905Q1003 869 958 860L849 844Q863 813 871 779T879 706Q879 631 850 571T770 467T649 401T494 378Q425 378 365 393Q335
375 320 354T304 311Q304 276 333 259T410 235T519 225T644 219T769 203T878 166T955 96T985 -20Q985 -86 953 -148T858 -258T707 -335T505 -364Q392 -364 309 -342T170 -283T87 -197T59 -95Q59 -21 105 30T232 111Q188 131 162 165T136 257Q136 279 144 302T168
349T209 394T266 432Q191 474 148 543T105 706Q105 781 134 841T214 944T337 1010T494 1033Q626 1033 721 978H1003Z" />
<glyph unicode="h" glyph-name="null" horiz-adv-x="1119" d="M332 887Q396 952 473 992T652 1032Q736 1032 799 1004T906 926T971 804T993 647V0H797V647Q797 756 747 816T594 877Q519 877 454 842T332 745V0H137V1476H332V887Z" />
<glyph unicode="i" glyph-name="null" horiz-adv-x="487" d="M341 1016V0H146V1016H341ZM378 1330Q378 1303 367 1279T338 1236T294 1207T242 1196Q215 1196 191 1206T149 1235T120 1278T109 1330Q109 1358 119 1382T148 1425T191 1454T242 1465Q269 1465 294
1455T337 1426T367 1383T378 1330Z" />
<glyph unicode="j" glyph-name="null" horiz-adv-x="487" d="M341 1016V-64Q341 -127 325 -181T273 -276T181 -340T44 -363Q11 -363 -16 -358T-72 -344L-64 -238Q-60 -219 -47 -217T5 -215Q82 -215 114 -180T146 -64V1016H341ZM378 1330Q378 1303 367 1279T337
1236T294 1207T241 1196Q214 1196 190 1206T148 1235T119 1278T108 1330Q108 1358 118 1382T147 1425T190 1454T241 1465Q269 1465 293 1455T337 1426T367 1383T378 1330Z" />
<glyph unicode="k" glyph-name="null" horiz-adv-x="1029" d="M332 1476V613H378Q399 613 413 619T442 643L746 978Q760 997 777 1006T820 1016H998L639 623Q610 586 577 566Q596 553 610 536T639 499L1021 0H846Q822 0 805 8T773 37L459 445Q444 468 429 474T384
481H332V0H137V1476H332Z" />
<glyph unicode="l" glyph-name="null" horiz-adv-x="478" d="M337 1476V0H141V1476H337Z" />
<glyph unicode="m" glyph-name="null" horiz-adv-x="1653" d="M137 0V1016H254Q295 1016 305 977L319 880Q375 947 443 989T604 1032Q705 1032 768 977T860 826Q882 880 917 919T995 983T1086 1020T1185 1032Q1266 1032 1329 1007T1437 932T1504 811T1527 647V0H1331V647Q1331
761 1282 819T1137 877Q1095 877 1057 863T991 819T946 747T929 647V0H733V647Q733 765 686 821T548 877Q485 877 431 844T332 754V0H137Z" />
<glyph unicode="n" glyph-name="null" horiz-adv-x="1119" d="M320 875Q353 910 389 939T465 988T552 1020T652 1032Q736 1032 799 1004T906 926T971 804T993 647V0H797V647Q797 756 747 816T594 877Q519 877 454 842T332 745V0H137V1016H254Q295 1016 305 977L320 875Z" />
<glyph unicode="o" glyph-name="null" horiz-adv-x="1138" d="M570 1032Q682 1032 772 996T926 891T1024 726T1058 509Q1058 389 1024 292T927 127T773 23T570 -14Q457 -14 367 22T212 127T114 292T79 509Q79 629 113 725T212 890T366 995T570 1032ZM570 138Q714
138 785 235T856 508Q856 684 785 781T570 879Q424 879 353 782T281 508Q281 332 352 235T570 138Z" />
<glyph unicode="p" glyph-name="null" horiz-adv-x="1125" d="M332 250Q380 187 435 162T560 137Q694 137 767 233T841 515Q841 612 825 680T777 792T699 856T595 877Q510 877 448 839T332 731V250ZM322 864Q354 902 390 933T469 987T558 1022T660 1035Q747 1035
817 1001T938 901T1015 738T1043 515Q1043 402 1013 306T926 138T788 27T604 -14Q513 -14 448 16T332 100V-341H137V1016H254Q295 1016 305 977L322 864Z" />
<glyph unicode="q" glyph-name="null" horiz-adv-x="1123" d="M792 770Q747 831 690 857T564 883Q430 883 357 787T283 505Q283 408 299 340T347 228T425 164T529 143Q614 143 676 181T792 288V770ZM988 1016V-341H792V145Q729 73 649 30T464 -14Q377 -14 307
20T186 119T109 282T82 505Q82 618 112 715T199 883T337 994T520 1035Q569 1035 610 1026T686 1000T750 959T806 904L819 977Q829 1016 870 1016H988Z" />
<glyph unicode="r" glyph-name="null" horiz-adv-x="733" d="M321 821Q370 921 439 978T605 1035Q638 1035 667 1028T719 1005L706 858Q699 831 673 831Q659 831 631 836T571 842Q524 842 488 829T424 789T373 724T332 636V0H137V1016H249Q281 1016 292 1005T309
964L321 821Z" />
<glyph unicode="s" glyph-name="null" horiz-adv-x="869" d="M736 841Q728 828 719 823T696 817Q680 817 661 828T614 852T549 876T461 887Q419 887 385 877T326 848T289 804T276 749Q276 711 298 686T357 643T440 611T535 580T630 544T713 493T772 419T795 314Q795
243 770 183T695 78T572 9T405 -16Q300 -16 211 19T62 108L108 183Q116 197 128 204T160 212Q179 212 199 198T247 168T315 138T415 124Q465 124 502 136T563 170T600 220T612 279Q612 319 590 345T531 391T447 424T351 454T255 491T172 544T113 622T90 734Q90
793 114 847T185 942T300 1007T457 1032Q558 1032 639 1000T779 912L736 841Z" />
<glyph unicode="t" glyph-name="null" horiz-adv-x="724" d="M455 -16Q332 -16 266 53T199 250V858H81Q64 858 53 868T41 900V979L206 1002L250 1305Q254 1322 265 1331T295 1341H394V1000H682V858H394V263Q394 203 423 174T499 144Q526 144 545 151T579 166T603
182T621 189Q631 189 636 185T648 170L706 76Q658 32 592 8T455 -16Z" />
<glyph unicode="u" glyph-name="null" horiz-adv-x="1118" d="M982 1016V0H865Q825 0 813 39L799 141Q766 106 730 77T653 28T566 -4T467 -16Q383 -16 320 12T213 90T148 212T126 369V1016H322V369Q322 260 372 200T525 139Q600 139 665 174T787 272V1016H982Z" />
<glyph unicode="v" glyph-name="null" horiz-adv-x="1038" d="M1019 1016L607 0H431L19 1016H180Q203 1016 218 1005T238 977L481 353Q494 314 503 276T521 199Q529 237 539 275T563 353L809 977Q815 994 830 1005T866 1016H1019Z" />
<glyph unicode="w" glyph-name="null" horiz-adv-x="1579" d="M1550 1016L1223 0H1067Q1039 0 1029 37L815 699Q807 724 801 748T790 798Q781 746 765 697L548 37Q538 0 505 0H357L29 1016H183Q206 1016 221 1005T242 977L425 353Q434 315 441 279T454 207Q463
243 473 279T495 353L698 981Q703 998 717 1008T751 1019H836Q858 1019 872 1009T892 981L1090 353Q1101 315 1111 279T1129 205Q1135 241 1143 277T1161 353L1347 977Q1352 994 1367 1005T1403 1016H1550Z" />
<glyph unicode="x" glyph-name="null" horiz-adv-x="1008" d="M989 0H801Q778 0 765 12T743 39L498 426Q493 411 488 397T475 371L250 39Q240 25 227 13T193 0H19L373 523L33 1016H221Q244 1016 254 1009T273 988L514 617Q519 632 525 646T541 677L748 984Q766
1016 796 1016H975L635 532L989 0Z" />
<glyph unicode="y" glyph-name="null" horiz-adv-x="1037" d="M1025 1016L461 -295Q452 -317 437 -329T393 -341H248L434 64L17 1016H187Q212 1016 226 1004T246 977L504 367Q512 344 519 321T532 274Q539 298 547 321T564 368L813 977Q820 994 835 1005T869 1016H1025Z" />
<glyph unicode="z" glyph-name="null" horiz-adv-x="908" d="M845 934Q845 913 838 893T818 859L285 153H827V0H56V82Q56 96 63 115T83 152L619 863H87V1016H845V934Z" />
<glyph unicode="{" glyph-name="null" horiz-adv-x="605" d="M480 1408Q405 1408 363 1360T320 1227Q320 1171 327 1120T342 1020T357 922T364 825Q364 750 322 696T211 622Q279 603 321 549T364 419Q364 370 357 322T342 224T327 123T320 16Q320 -68 362 -116T480
-165H498Q510 -165 525 -174T541 -206V-294H487Q402 -294 339 -271T233 -205T170 -103T149 28Q149 79 156 128T173 226T190 323T198 421Q198 484 165 523T65 563V680Q131 680 164 719T198 822Q198 871 191 919T174 1017T157 1115T149 1215Q149 1286 170 1345T233
1447T338 1513T487 1537H541V1449Q541 1427 526 1418T498 1408H480Z" />
<glyph unicode="|" glyph-name="null" horiz-adv-x="506" d="M177 1537H329V-348H177V1537Z" />
<glyph unicode="}" glyph-name="null" horiz-adv-x="605" d="M539 563Q473 563 440 524T407 421Q407 371 414 323T431 226T448 128T456 28Q456 -43 435 -102T372 -204T266 -270T117 -294H64V-206Q64 -184 79 -175T107 -165H125Q200 -165 242 -117T285 16Q285 71
278 122T263 223T248 321T241 419Q241 494 283 548T393 622Q325 641 283 695T241 825Q241 874 248 922T263 1019T278 1120T285 1227Q285 1311 243 1359T125 1408H107Q95 1408 80 1417T64 1449V1537H117Q202 1537 265 1514T371 1448T435 1346T456 1215Q456 1164
449 1115T432 1017T415 920T407 822Q407 759 440 720T539 680V563Z" />
<glyph unicode="~" glyph-name="null" horiz-adv-x="1160" d="M759 622Q822 622 857 663T893 773H1051Q1051 703 1032 646T977 547T889 483T771 460Q719 460 669 475T573 510T484 544T407 560Q344 560 309 520T273 410H115Q115 480 134 537T189 636T277 700T395
723Q447 723 497 707T593 673T682 638T759 622Z" />
</font>
</defs>
</svg>
